<?xml version="1.0" standalone="no"?>
<!DOCTYPE svg PUBLIC "-//W3C//DTD SVG 20010904//EN"
 "http://www.w3.org/TR/2001/REC-SVG-20010904/DTD/svg10.dtd">
<svg version="1.0" xmlns="http://www.w3.org/2000/svg"
 width="3000.000000pt" height="3000.000000pt" viewBox="0 0 3000.000000 3000.000000"
 preserveAspectRatio="xMidYMid meet">

<g transform="translate(0.000000,3000.000000) scale(0.100000,-0.100000)"
fill="#000000" stroke="none">
<path d="M14535 25614 c-801 -47 -1392 -132 -2071 -298 -1297 -319 -2541 -890
-3620 -1661 -483 -346 -862 -665 -1288 -1085 -428 -422 -744 -784 -1087 -1245
-1726 -2320 -2422 -5245 -1933 -8125 67 -393 242 -1139 264 -1125 5 3 6 -3 4
-12 -4 -15 130 -460 142 -472 10 -10 2 21 -31 119 -39 120 -43 139 -20 120 10
-9 15 -9 15 -1 0 6 -4 11 -9 11 -5 0 -11 9 -14 21 -3 12 -10 18 -15 15 -5 -3
-12 6 -15 20 -3 16 1 28 9 31 10 4 10 8 1 18 -7 7 -16 10 -22 7 -5 -3 -6 -1
-2 3 4 5 44 8 89 7 45 -1 88 3 97 8 11 6 12 9 3 10 -7 0 -11 4 -8 8 3 5 18 8
33 7 15 -1 19 0 8 2 -27 6 -46 23 -39 34 3 5 22 9 44 9 33 0 37 -3 33 -20 -3
-12 0 -20 7 -20 7 0 2 -9 -11 -19 -13 -11 -21 -23 -16 -27 4 -4 13 -2 19 4 7
7 25 12 41 12 18 0 26 4 21 11 -4 7 7 10 34 8 23 -2 44 0 48 4 4 4 -9 7 -29 7
-36 0 -51 20 -27 35 6 4 95 6 197 6 l185 -1 -6 33 -6 33 177 -1 c98 -1 188 2
201 7 17 6 22 15 22 44 0 33 2 36 23 30 12 -3 32 -6 43 -6 15 0 23 -8 26 -24
5 -23 2 -24 -23 -19 -17 3 -29 1 -29 -5 0 -17 27 -22 95 -15 l65 6 0 32 0 31
73 -1 c39 -1 78 3 85 8 8 7 16 7 22 1 10 -10 206 -9 305 0 124 12 155 19 155
32 0 8 5 14 10 14 7 0 7 -6 0 -19 -7 -14 -23 -21 -53 -23 -23 -2 89 -4 249 -5
l292 -1 -2 39 -1 39 155 1 c85 1 215 1 288 1 l134 -1 -6 25 c-5 19 -3 24 14
24 22 0 28 -16 8 -22 -6 -2 -8 -9 -5 -15 11 -18 433 -18 444 -1 5 8 11 -26 14
-82 3 -52 4 -7 2 100 -3 107 -9 281 -14 385 -16 311 -23 3198 -10 3970 7 374
14 707 16 740 3 33 9 173 15 310 36 844 174 1438 467 2018 236 464 618 905
1056 1219 462 330 1061 556 1727 652 240 35 451 51 1020 77 344 17 3874 24
4390 10 1039 -29 1411 -64 1860 -177 733 -183 1285 -494 1760 -992 635 -663
956 -1497 1024 -2657 7 -109 14 -263 27 -580 16 -365 23 -3461 10 -4091 -21
-1030 -55 -1474 -142 -1889 -130 -617 -370 -1150 -714 -1580 -107 -134 -414
-441 -550 -549 -60 -48 -154 -117 -207 -153 -84 -57 -96 -69 -85 -82 11 -14
10 -14 -5 -3 -15 12 -25 9 -75 -21 -32 -20 -114 -65 -183 -101 -147 -77 -154
-88 -9 -15 76 38 104 47 114 39 10 -8 15 -8 21 1 4 7 3 9 -4 5 -6 -3 -13 -2
-16 3 -6 9 31 27 47 23 5 -1 6 2 3 7 -3 5 0 11 8 14 8 3 17 -1 20 -9 3 -9 20
-14 46 -14 l40 0 0 -42 c0 -32 3 -39 10 -28 5 8 10 10 10 4 0 -7 7 -15 16 -18
9 -4 13 -2 8 5 -4 7 -1 10 7 7 8 -3 13 -15 11 -30 -2 -15 2 -29 7 -33 6 -3 12
-25 12 -48 1 -27 3 -33 6 -17 7 40 23 48 23 12 0 -42 18 -41 23 1 l4 32 1 -32
2 -33 80 0 80 0 0 -39 c0 -39 0 -39 35 -34 l35 5 0 -46 0 -46 40 4 c33 3 40 1
40 -14 0 -13 -6 -17 -19 -13 -10 3 -22 0 -25 -6 -5 -7 3 -11 18 -11 16 0 26
-6 26 -15 0 -14 16 -19 52 -16 12 2 18 -7 20 -31 3 -31 6 -33 44 -36 40 -3 41
-4 40 -40 -1 -37 0 -38 50 -41 20 -1 25 -6 24 -23 -4 -47 -3 -48 73 -48 l74 0
2 -52 c4 -106 1 -99 56 -105 28 -3 61 -5 74 -5 16 0 20 -3 11 -8 -8 -5 -9 -9
-1 -14 6 -4 11 -16 11 -26 0 -16 8 -19 56 -19 31 0 58 -2 62 -5 3 -3 -10 -6
-29 -6 -26 0 -30 -3 -19 -10 8 -5 10 -10 4 -10 -6 0 -9 -10 -7 -24 3 -13 10
-23 16 -23 33 1 71 -5 60 -9 -14 -6 3 -64 19 -64 6 0 8 7 5 15 -4 8 -2 17 3
20 9 6 14 -8 11 -28 -1 -5 3 -6 9 -2 13 8 6 50 -8 50 -6 0 -14 3 -18 8 -4 4 7
7 23 7 17 0 34 6 36 13 3 6 6 2 6 -10 1 -13 -3 -23 -9 -23 -6 0 -5 -10 2 -25
8 -18 19 -25 38 -25 19 0 29 -6 33 -19 4 -16 -1 -21 -27 -24 l-31 -4 35 -3
c34 -3 34 -3 -10 -10 l-45 -7 43 -1 42 -2 1 -47 c1 -27 3 -40 6 -30 2 9 11 17
18 17 8 0 15 14 18 33 l4 32 3 -35 2 -35 8 30 9 30 -2 -30 c-2 -22 -8 -31 -27
-35 -19 -5 -10 -9 40 -17 51 -8 57 -11 28 -12 -31 -1 -38 -5 -38 -20 0 -11 4
-22 9 -25 5 -4 7 3 4 14 -5 17 0 20 26 20 17 0 30 -3 30 -8 -1 -4 0 -9 1 -12
1 -3 2 -25 3 -50 2 -36 6 -45 22 -48 17 -3 17 -1 5 7 -12 8 -8 11 18 11 20 0
31 -4 27 -10 -4 -6 5 -10 19 -10 14 0 26 -6 26 -12 0 -7 5 -5 11 5 17 29 29
19 28 -25 l-2 -43 -7 40 -7 40 -2 -42 c-1 -42 7 -50 43 -44 5 1 21 -1 35 -4
26 -5 27 -8 21 -58 -6 -59 -3 -87 11 -87 5 0 10 19 11 43 l1 42 7 -45 7 -45 2
45 c1 30 4 40 10 31 6 -10 11 -6 19 15 9 25 10 21 8 -28 l-3 -58 33 0 c32 0
34 -2 34 -36 0 -36 0 -36 39 -32 l39 3 -1 -44 c0 -43 0 -43 37 -47 38 -3 81
-34 58 -42 -21 -7 -13 -22 13 -22 17 0 23 4 19 14 -3 8 -1 17 5 21 7 3 8 0 5
-9 -4 -11 0 -14 15 -13 13 1 20 6 17 14 -3 7 1 10 10 6 11 -4 12 -9 3 -19 -6
-8 -16 -11 -22 -7 -5 3 -7 1 -4 -4 4 -6 0 -16 -8 -23 -12 -10 -15 -10 -16 1 0
8 -4 4 -9 -7 -5 -12 -79 -82 -166 -155 -86 -74 -171 -147 -188 -162 -64 -59
135 102 291 236 118 101 160 143 156 155 -4 13 -3 14 5 4 11 -16 84 50 385
347 863 853 1530 1780 2068 2876 609 1243 941 2478 1056 3930 25 312 25 1157
0 1470 -103 1309 -384 2443 -889 3580 -589 1327 -1494 2579 -2563 3545 -1314
1187 -2840 2007 -4535 2439 -599 152 -1148 239 -1905 302 -123 10 -1053 20
-1180 13z m-6655 -13274 c0 -5 -5 -10 -11 -10 -5 0 -7 5 -4 10 3 6 8 10 11 10
2 0 4 -4 4 -10z m117 -6 c-3 -3 -12 -4 -19 -1 -8 3 -5 6 6 6 11 1 17 -2 13 -5z
m-1051 -49 c17 -16 14 -18 -10 -9 -9 3 -16 10 -16 15 0 13 9 11 26 -6z m-226
-35 c0 -5 -9 -10 -20 -10 -11 0 -20 5 -20 10 0 6 9 10 20 10 11 0 20 -4 20
-10z m123 3 c-7 -2 -21 -2 -30 0 -10 3 -4 5 12 5 17 0 24 -2 18 -5z m50 -10
c-7 -2 -13 -12 -13 -20 0 -9 -3 -14 -6 -10 -10 10 4 37 18 36 10 0 10 -2 1 -6z
m-553 -18 c0 -8 -4 -15 -10 -15 -5 0 -10 7 -10 15 0 8 5 15 10 15 6 0 10 -7
10 -15z m727 9 c-3 -3 -12 -4 -19 -1 -8 3 -5 6 6 6 11 1 17 -2 13 -5z m-1687
-129 c11 -13 10 -14 -4 -9 -9 3 -16 10 -16 15 0 13 6 11 20 -6z m14613 -3218
c-3 -5 -10 -2 -15 7 -5 9 -14 14 -20 10 -6 -4 -5 -10 3 -15 10 -6 8 -9 -8 -9
-12 0 -25 5 -29 12 -4 6 -3 8 3 5 6 -4 16 0 23 8 9 11 16 12 30 3 10 -7 16
-16 13 -21z m147 -157 c0 -5 -4 -10 -10 -10 -5 0 -10 5 -10 10 0 6 5 10 10 10
6 0 10 -4 10 -10z m120 0 c0 -5 -4 -10 -10 -10 -5 0 -10 5 -10 10 0 6 5 10 10
10 6 0 10 -4 10 -10z m703 -677 c-7 -2 -21 -2 -30 0 -10 3 -4 5 12 5 17 0 24
-2 18 -5z m177 -115 c0 -18 -2 -20 -9 -8 -6 8 -7 18 -5 22 9 14 14 9 14 -14z
m37 -10 c-3 -8 -6 -5 -6 6 -1 11 2 17 5 13 3 -3 4 -12 1 -19z m203 -148 c0 -5
-4 -10 -10 -10 -5 0 -10 5 -10 10 0 6 5 10 10 10 6 0 10 -4 10 -10z m48 -9 c3
-8 -1 -12 -9 -9 -7 2 -15 10 -17 17 -3 8 1 12 9 9 7 -2 15 -10 17 -17z m52
-121 c0 -5 -4 -10 -10 -10 -5 0 -10 5 -10 10 0 6 5 10 10 10 6 0 10 -4 10 -10z
m23 -82 c4 -10 8 -9 17 2 10 13 11 12 6 -4 -4 -11 -1 -23 6 -27 7 -4 9 -12 4
-16 -5 -4 -11 -2 -13 5 -3 7 -22 12 -44 12 -32 0 -39 3 -39 20 0 15 7 20 29
20 16 0 32 -6 34 -12z m117 2 c0 -5 -4 -10 -10 -10 -5 0 -10 5 -10 10 0 6 5
10 10 10 6 0 10 -4 10 -10z m20 -80 c0 -5 -4 -10 -10 -10 -5 0 -10 5 -10 10 0
6 5 10 10 10 6 0 10 -4 10 -10z m60 0 c0 -5 -7 -10 -16 -10 -8 0 -12 5 -9 10
3 6 10 10 16 10 5 0 9 -4 9 -10z m235 -239 c3 -5 2 -12 -3 -15 -5 -3 -9 1 -9
9 0 17 3 19 12 6z m65 -76 c0 -8 -4 -15 -10 -15 -5 0 -10 7 -10 15 0 8 5 15
10 15 6 0 10 -7 10 -15z m-60 -5 c0 -5 -4 -10 -10 -10 -5 0 -10 5 -10 10 0 6
5 10 10 10 6 0 10 -4 10 -10z"/>
<path d="M13035 20469 c-612 -16 -1015 -40 -1253 -74 -511 -75 -931 -233
-1247 -470 -99 -74 -327 -295 -408 -395 -259 -321 -434 -758 -511 -1275 -40
-262 -57 -524 -76 -1165 -14 -430 -13 -3643 0 -4100 11 -367 38 -938 46 -955
2 -5 2 45 -2 112 l-5 123 523 -3 523 -3 -3 -36 c-2 -20 1 -39 7 -43 6 -3 11
-2 11 4 0 16 49 5 66 -15 12 -15 14 -15 11 -3 -4 13 -1 15 15 11 11 -3 24 1
29 9 8 12 11 12 19 -1 9 -13 11 -13 21 0 8 11 12 12 16 3 10 -27 23 -11 23 27
l0 40 40 0 c22 0 40 -4 40 -10 0 -5 -13 -10 -30 -10 -27 0 -30 -3 -30 -31 0
-28 2 -30 16 -18 13 10 17 10 25 -2 8 -12 10 -12 19 1 9 13 11 13 20 0 9 -13
11 -13 20 0 9 13 11 13 19 1 8 -12 12 -12 25 -2 9 8 16 9 16 3 0 -5 10 -10 23
-10 75 -2 104 -2 117 0 50 5 180 -4 180 -12 0 -5 -9 -10 -20 -10 -11 0 -20 -6
-20 -14 0 -8 -6 -17 -12 -19 -7 -3 22 -6 64 -6 99 -1 108 -5 108 -47 0 -31 3
-34 30 -34 27 0 30 3 30 30 0 33 -6 31 115 34 37 1 40 -1 45 -29 3 -20 11 -31
23 -31 9 -1 60 -2 113 -3 l96 -1 -4 -25 c-3 -14 -2 -28 2 -30 12 -8 288 -23
448 -25 74 -1 82 -3 82 -21 0 -10 -4 -19 -10 -19 -5 0 -10 -10 -10 -21 0 -19
4 -21 40 -16 22 3 40 2 40 -2 0 -4 7 -8 15 -8 8 0 12 3 10 6 -2 4 46 6 106 6
82 0 109 -3 109 -12 0 -7 -6 -13 -12 -13 -9 0 -8 -4 2 -10 8 -5 24 -7 35 -4
17 4 16 3 -3 -9 -33 -19 -18 -26 44 -20 39 4 54 2 54 -7 0 -7 6 -10 14 -7 10
4 16 -7 21 -39 3 -24 10 -44 16 -44 5 0 9 5 9 11 0 7 35 9 108 5 59 -3 136 -6
172 -7 l66 -2 -4 -32 -4 -33 84 3 c91 3 158 -9 159 -28 0 -7 2 -20 4 -30 2
-13 -6 -18 -37 -23 -35 -6 -39 -10 -35 -30 2 -13 0 -24 -5 -24 -5 0 -7 -4 -3
-9 3 -6 18 -6 36 -1 37 11 51 22 23 18 -10 -2 -19 2 -19 7 0 6 8 9 19 7 13 -1
16 2 12 13 -4 11 2 15 27 15 39 0 52 -9 52 -35 0 -15 8 -21 30 -23 17 -2 35
-8 40 -12 6 -5 17 -5 25 0 19 12 90 13 90 1 0 -17 74 -19 87 -2 14 18 14 18
16 -27 2 -36 -9 -41 -29 -14 -12 16 -13 16 -14 -4 0 -23 1 -23 118 -23 l82 0
0 -41 c0 -33 3 -40 20 -40 23 0 26 -10 8 -28 -9 -9 -9 -12 1 -12 7 0 11 -6 8
-13 -5 -13 45 -21 116 -19 9 1 17 -4 17 -10 0 -7 5 -7 14 1 11 9 15 7 19 -8 2
-11 0 -24 -5 -29 -6 -6 -6 -12 1 -16 6 -4 11 -4 11 1 0 4 5 1 11 -7 8 -11 9
-6 7 23 l-4 37 78 0 c70 0 78 -2 78 -19 0 -11 6 -22 13 -24 10 -4 10 -6 0 -6
-7 -1 -13 -5 -13 -11 0 -5 53 -8 131 -6 73 2 126 0 119 -4 -10 -6 -9 -9 1 -13
10 -4 10 -6 2 -6 -7 -1 -13 -12 -13 -25 0 -19 4 -23 19 -19 11 3 22 12 24 22
3 11 5 9 6 -6 1 -16 6 -21 16 -17 9 4 13 15 11 30 -4 21 -1 24 25 24 25 0 29
-4 29 -29 0 -17 5 -33 10 -36 6 -4 10 9 10 31 0 44 8 42 12 -3 1 -23 6 -29 18
-25 8 3 18 10 22 16 4 6 8 1 8 -11 0 -13 4 -23 8 -23 4 0 8 -12 8 -27 -1 -28
0 -28 71 -31 72 -3 72 -3 79 25 9 37 22 53 45 53 14 0 19 -8 20 -32 1 -18 1
-38 0 -45 -1 -7 11 -9 39 -6 26 4 40 2 40 -6 0 -6 14 -11 30 -11 17 0 30 5 30
10 0 15 117 13 124 -2 5 -10 7 -10 12 0 3 6 15 12 26 12 17 0 20 -5 15 -30 -6
-29 -5 -30 28 -30 19 0 35 -5 35 -11 0 -8 14 -10 40 -6 39 5 40 4 40 -24 0
-22 6 -32 25 -39 14 -5 31 -7 38 -4 14 5 37 -34 37 -61 0 -9 9 -15 23 -14 16
1 18 2 5 6 -19 5 -22 12 -12 37 4 12 20 16 55 16 46 0 49 -2 49 -25 0 -14 -4
-25 -10 -25 -5 0 -10 -4 -10 -8 0 -5 46 -8 103 -8 56 1 108 -2 115 -8 9 -6 18
-4 30 7 15 16 13 17 -26 17 -38 0 -42 2 -42 24 0 13 -5 26 -10 28 -6 2 20 2
57 1 38 -1 74 -2 82 -3 8 0 12 -3 9 -6 -3 -3 -3 -17 1 -32 6 -21 13 -26 42
-26 29 -1 35 -5 37 -26 6 -45 16 -48 165 -51 73 -2 78 -7 62 -57 l-7 -24 131
4 c72 2 131 0 131 -4 0 -16 19 -8 23 10 4 14 6 14 12 -5 9 -27 12 -28 32 -8
12 13 13 18 3 31 -7 8 -20 12 -29 10 -9 -2 -26 -7 -38 -11 -19 -5 -23 -2 -23
17 0 22 5 24 55 26 47 2 54 0 48 -14 -5 -13 -2 -15 15 -9 19 5 22 2 22 -23 0
-26 4 -30 34 -34 19 -2 33 -1 30 3 -2 4 8 7 23 7 21 0 23 -2 10 -10 -10 -5
-17 -20 -17 -33 0 -22 4 -24 53 -25 58 -2 141 -6 172 -9 12 -2 15 -5 7 -8 -9
-4 -10 -8 -2 -18 8 -9 8 -15 0 -20 -5 -3 -10 -18 -10 -33 0 -20 3 -23 12 -14
16 16 45 15 51 0 2 -7 8 -9 13 -5 5 4 4 11 -2 15 -6 4 -14 20 -18 36 -6 26 -5
27 9 13 8 -9 15 -20 15 -26 0 -6 6 -12 13 -12 6 -1 19 -3 27 -4 8 -1 21 -3 28
-4 19 -2 14 -31 -5 -32 -14 0 -15 -2 -3 -6 8 -4 20 -13 26 -21 6 -8 16 -12 22
-8 7 4 12 2 12 -5 0 -10 3 -10 12 -1 17 17 24 15 25 -9 2 -22 20 -49 33 -49 5
0 11 8 13 18 4 14 6 14 12 -5 4 -13 11 -23 16 -23 5 0 9 -14 9 -31 0 -23 4
-30 18 -28 9 1 22 1 28 0 16 -1 38 -57 30 -76 -3 -9 1 -18 9 -21 19 -8 19 -24
0 -24 -8 0 -15 -4 -15 -10 0 -17 34 -28 104 -32 38 -2 64 -2 58 0 -7 2 -12 21
-12 43 0 38 -1 39 -36 39 -21 0 -33 4 -29 10 9 14 62 12 68 -2 4 -10 8 -10 15
1 8 11 11 10 20 -5 7 -13 21 -17 61 -16 48 1 51 -1 51 -24 0 -13 5 -24 10 -24
6 0 10 11 10 25 0 20 5 25 25 25 22 0 25 -4 25 -34 0 -19 -6 -37 -12 -39 -7
-3 15 -6 50 -6 34 -1 62 -5 62 -11 0 -5 -4 -10 -10 -10 -5 0 -10 -5 -10 -12 0
-6 3 -8 6 -5 4 4 16 -3 26 -16 16 -17 30 -22 69 -21 50 0 52 -1 51 -46 l-1
-25 11 27 c13 30 30 40 53 32 20 -8 19 -34 -2 -50 -16 -12 -10 -13 45 -14 60
0 62 -1 52 -20 -8 -14 -8 -26 0 -40 9 -17 21 -20 82 -20 l71 0 -6 -29 c-7 -34
12 -58 31 -39 8 8 12 8 12 1 0 -7 25 -10 73 -8 39 2 62 1 50 -2 -19 -4 -23
-11 -23 -45 0 -39 1 -40 27 -35 15 3 40 -2 56 -10 27 -13 29 -13 34 6 5 21 23
30 23 12 0 -11 38 -24 63 -21 9 1 17 -3 17 -7 0 -13 -44 -11 -52 1 -4 6 -8 -1
-8 -16 0 -24 -3 -27 -31 -23 -20 2 -32 -1 -36 -11 -3 -8 -13 -14 -22 -14 -14
0 -14 2 -1 10 8 5 11 10 6 10 -5 0 -17 -7 -26 -15 -9 -8 -56 -22 -104 -31 -48
-9 -85 -18 -82 -21 7 -7 170 25 296 59 234 62 499 170 673 274 164 98 374 281
535 464 232 265 416 659 506 1085 86 408 110 809 127 2075 10 760 6 3221 -7
3480 -2 52 -9 217 -14 365 -29 765 -91 1135 -258 1547 -101 251 -212 430 -387
628 -343 388 -767 621 -1351 744 -321 67 -666 93 -1544 116 -429 11 -3448 11
-3885 -1z m5734 -1115 c249 -62 468 -254 560 -493 38 -100 51 -173 51 -295 -1
-671 -779 -1042 -1306 -622 -348 277 -402 779 -122 1133 189 239 518 351 817
277z m-3394 -934 c650 -74 1238 -315 1755 -716 141 -110 381 -342 505 -489
634 -752 916 -1737 774 -2710 -208 -1436 -1301 -2590 -2724 -2879 -247 -50
-370 -61 -680 -61 -311 0 -432 11 -685 62 -765 154 -1465 576 -1972 1189 -350
424 -606 960 -712 1494 -55 275 -61 343 -61 695 1 292 3 347 23 475 85 542
256 988 547 1425 136 204 247 339 434 525 288 287 549 476 899 650 415 207
824 316 1327 354 85 7 475 -3 570 -14z m-4675 -6170 c0 -5 -4 -10 -10 -10 -5
0 -10 5 -10 10 0 6 5 10 10 10 6 0 10 -4 10 -10z m40 0 c0 -5 -5 -10 -11 -10
-5 0 -7 5 -4 10 3 6 8 10 11 10 2 0 4 -4 4 -10z m80 0 c0 -5 -4 -10 -10 -10
-5 0 -10 5 -10 10 0 6 5 10 10 10 6 0 10 -4 10 -10z m560 -80 c0 -5 -5 -10
-11 -10 -5 0 -7 5 -4 10 3 6 8 10 11 10 2 0 4 -4 4 -10z m-45 -30 c3 -5 1 -10
-4 -10 -6 0 -11 5 -11 10 0 6 2 10 4 10 3 0 8 -4 11 -10z m685 -94 c0 -3 -4
-8 -10 -11 -5 -3 -10 -1 -10 4 0 6 5 11 10 11 6 0 10 -2 10 -4z m-7 -33 c-18
-2 -48 -2 -65 0 -18 2 -4 4 32 4 36 0 50 -2 33 -4z m807 -133 c0 -5 -4 -10
-10 -10 -5 0 -10 5 -10 10 0 6 5 10 10 10 6 0 10 -4 10 -10z m167 -76 c-3 -3
-12 -4 -19 -1 -8 3 -5 6 6 6 11 1 17 -2 13 -5z m570 -90 c-3 -3 -12 -4 -19 -1
-8 3 -5 6 6 6 11 1 17 -2 13 -5z m-7 -34 c-19 -13 -30 -13 -30 0 0 6 10 10 23
10 18 0 19 -2 7 -10z m93 -97 c-7 -2 -21 -2 -30 0 -10 3 -4 5 12 5 17 0 24 -2
18 -5z m32 -38 c-23 -8 -83 -10 -79 -3 3 4 24 8 47 7 23 0 38 -2 32 -4z m240
-53 c-3 -3 -11 0 -18 7 -9 10 -8 11 6 5 10 -3 15 -9 12 -12z m158 11 c-7 -2
-19 -2 -25 0 -7 3 -2 5 12 5 14 0 19 -2 13 -5z m-13 -93 c0 -5 -4 -10 -10 -10
-5 0 -10 5 -10 10 0 6 5 10 10 10 6 0 10 -4 10 -10z m40 -58 c0 -4 16 -8 35
-9 19 -1 32 3 29 8 -3 5 0 9 5 9 6 0 11 -9 11 -20 0 -17 -7 -20 -40 -20 -22 0
-40 -4 -40 -10 0 -5 -4 -10 -9 -10 -11 0 -19 30 -14 48 5 13 23 17 23 4z m125
-2 c-3 -5 -11 -10 -16 -10 -6 0 -7 5 -4 10 3 6 11 10 16 10 6 0 7 -4 4 -10z
m55 -41 c0 -5 -13 -8 -30 -7 -29 2 -36 8 -25 20 8 8 55 -3 55 -13z m220 -34
c0 -8 -2 -15 -4 -15 -2 0 -6 7 -10 15 -3 8 -1 15 4 15 6 0 10 -7 10 -15z m50
-35 c0 -5 -8 -10 -17 -10 -15 0 -16 2 -3 10 19 12 20 12 20 0z m-62 -7 c-10
-2 -26 -2 -35 0 -10 3 -2 5 17 5 19 0 27 -2 18 -5z m212 -8 c0 -8 -4 -15 -10
-15 -5 0 -10 7 -10 15 0 8 5 15 10 15 6 0 10 -7 10 -15z m150 -35 c0 -5 -7 -7
-15 -4 -8 4 -15 8 -15 10 0 2 7 4 15 4 8 0 15 -4 15 -10z m370 -80 c0 -5 -7
-10 -15 -10 -8 0 -15 5 -15 10 0 6 7 10 15 10 8 0 15 -4 15 -10z m-240 -10 c0
-5 -4 -10 -10 -10 -5 0 -10 5 -10 10 0 6 5 10 10 10 6 0 10 -4 10 -10z m635
-130 c3 -5 1 -10 -4 -10 -6 0 -11 5 -11 10 0 6 2 10 4 10 3 0 8 -4 11 -10z
m82 -16 c-3 -3 -12 -4 -19 -1 -8 3 -5 6 6 6 11 1 17 -2 13 -5z m798 -164 c3
-5 1 -10 -4 -10 -6 0 -11 5 -11 10 0 6 2 10 4 10 3 0 8 -4 11 -10z m42 -56
c-3 -3 -12 -4 -19 -1 -8 3 -5 6 6 6 11 1 17 -2 13 -5z m803 -235 c0 -10 -4
-19 -10 -19 -5 0 -10 12 -10 26 0 14 4 23 10 19 6 -3 10 -15 10 -26z m87 -134
c17 -18 11 -31 -9 -19 -7 5 -17 9 -22 9 -5 0 -11 6 -13 13 -6 17 25 15 44 -3z
m218 -25 c3 -5 1 -10 -4 -10 -6 0 -11 5 -11 10 0 6 2 10 4 10 3 0 8 -4 11 -10z
m-65 -56 c0 -9 -5 -12 -12 -8 -6 4 -25 11 -42 15 -29 7 -29 7 12 8 32 1 42 -3
42 -15z m211 -1 c13 -16 12 -17 -3 -4 -17 13 -22 21 -14 21 2 0 10 -8 17 -17z
m-156 -11 c-3 -3 -11 0 -18 7 -9 10 -8 11 6 5 10 -3 15 -9 12 -12z m-135 -2
c0 -5 -4 -10 -10 -10 -5 0 -10 5 -10 10 0 6 5 10 10 10 6 0 10 -4 10 -10z
m180 6 c0 -2 -7 -7 -16 -10 -8 -3 -12 -2 -9 4 6 10 25 14 25 6z m-180 -76 c0
-11 -4 -20 -10 -20 -5 0 -10 9 -10 20 0 11 5 20 10 20 6 0 10 -9 10 -20z m497
-64 c3 -3 -12 -6 -35 -6 -23 0 -42 4 -42 9 0 10 67 8 77 -3z m586 -370 c4 -10
1 -13 -9 -9 -15 6 -19 23 -5 23 5 0 11 -7 14 -14z"/>
<path d="M14890 17223 c-300 -16 -600 -95 -870 -229 -1118 -555 -1562 -1904
-992 -3014 302 -587 868 -1020 1512 -1155 235 -50 553 -60 791 -25 932 137
1672 841 1859 1770 67 336 50 723 -46 1050 -266 903 -1047 1532 -1984 1599
-80 6 -161 10 -180 9 -19 -1 -60 -3 -90 -5z"/>
<path d="M8321 12234 c0 -11 3 -14 6 -6 3 7 2 16 -1 19 -3 4 -6 -2 -5 -13z"/>
<path d="M9652 12228 c2 -6 10 -14 16 -16 7 -2 10 2 6 12 -7 18 -28 22 -22 4z"/>
<path d="M6460 12170 c0 -5 9 -10 20 -10 11 0 20 5 20 10 0 6 -9 10 -20 10
-11 0 -20 -4 -20 -10z"/>
<path d="M6565 12150 c-3 -5 -1 -10 4 -10 6 0 11 5 11 10 0 6 -2 10 -4 10 -3
0 -8 -4 -11 -10z"/>
<path d="M11220 12141 c0 -12 5 -21 10 -21 6 0 10 6 10 14 0 8 -4 18 -10 21
-5 3 -10 -3 -10 -14z"/>
<path d="M6520 12130 c0 -5 5 -10 10 -10 6 0 10 5 10 10 0 6 -4 10 -10 10 -5
0 -10 -4 -10 -10z"/>
<path d="M10728 12132 c19 -13 112 -15 112 -2 0 6 -25 10 -62 10 -36 0 -58 -4
-50 -8z"/>
<path d="M11154 12126 c-9 -10 -6 -13 17 -13 18 0 29 6 29 14 0 17 -31 16 -46
-1z"/>
<path d="M5978 12103 c7 -3 16 -2 19 1 4 3 -2 6 -13 5 -11 0 -14 -3 -6 -6z"/>
<path d="M5787 12070 c3 -11 9 -20 13 -20 4 0 10 9 13 20 4 15 0 20 -13 20
-13 0 -17 -5 -13 -20z"/>
<path d="M8353 12045 c0 -27 2 -38 4 -22 2 15 2 37 0 50 -2 12 -4 0 -4 -28z"/>
<path d="M5233 12013 c9 -2 25 -2 35 0 9 3 1 5 -18 5 -19 0 -27 -2 -17 -5z"/>
<path d="M5344 12009 c17 -4 49 -7 73 -4 33 3 43 0 43 -11 0 -11 -16 -14 -70
-14 -40 0 -70 -4 -70 -10 0 -6 30 -10 70 -10 39 0 73 -1 78 -2 4 -2 8 12 10
30 l3 32 -83 -1 c-64 -1 -76 -3 -54 -10z"/>
<path d="M9593 11985 c0 -22 2 -30 4 -17 2 12 2 30 0 40 -3 9 -5 -1 -4 -23z"/>
<path d="M11761 12016 c7 -8 118 -10 126 -3 3 4 -24 7 -62 7 -38 0 -66 -2 -64
-4z"/>
<path d="M5595 11990 c3 -5 8 -10 11 -10 2 0 4 5 4 10 0 6 -5 10 -11 10 -5 0
-7 -4 -4 -10z"/>
<path d="M5180 11970 c0 -5 5 -10 11 -10 5 0 7 5 4 10 -3 6 -8 10 -11 10 -2 0
-4 -4 -4 -10z"/>
<path d="M5231 11966 c2 -2 20 -6 39 -10 25 -4 31 -3 20 4 -14 9 -69 15 -59 6z"/>
<path d="M4900 11930 c0 -5 5 -10 10 -10 6 0 10 5 10 10 0 6 -4 10 -10 10 -5
0 -10 -4 -10 -10z"/>
<path d="M5277 11919 c6 -22 23 -26 23 -5 0 8 -6 16 -14 19 -10 4 -12 0 -9
-14z"/>
<path d="M8363 11905 c0 -22 2 -30 4 -17 2 12 2 30 0 40 -3 9 -5 -1 -4 -23z"/>
<path d="M12367 11920 c-3 -11 -1 -20 4 -20 5 0 9 2 9 4 0 2 3 11 6 20 3 9 2
16 -4 16 -5 0 -12 -9 -15 -20z"/>
<path d="M4941 11904 c0 -11 3 -14 6 -6 3 7 2 16 -1 19 -3 4 -6 -2 -5 -13z"/>
<path d="M5310 11910 c0 -5 7 -10 16 -10 8 0 12 5 9 10 -3 6 -10 10 -16 10 -5
0 -9 -4 -9 -10z"/>
<path d="M4875 11900 c-3 -6 1 -7 9 -4 18 7 21 14 7 14 -6 0 -13 -4 -16 -10z"/>
<path d="M9602 11885 c0 -16 2 -22 5 -12 2 9 2 23 0 30 -3 6 -5 -1 -5 -18z"/>
<path d="M8372 11830 c0 -14 2 -19 5 -12 2 6 2 18 0 25 -3 6 -5 1 -5 -13z"/>
<path d="M9612 11810 c0 -19 2 -27 5 -17 2 9 2 25 0 35 -3 9 -5 1 -5 -18z"/>
<path d="M12680 11794 c0 -7 27 -34 34 -34 4 0 1 9 -6 20 -12 19 -28 27 -28
14z"/>
<path d="M8382 11730 c0 -14 2 -19 5 -12 2 6 2 18 0 25 -3 6 -5 1 -5 -13z"/>
<path d="M12831 11704 c0 -11 3 -14 6 -6 3 7 2 16 -1 19 -3 4 -6 -2 -5 -13z"/>
<path d="M12953 11685 c0 -8 4 -12 9 -9 5 3 6 10 3 15 -9 13 -12 11 -12 -6z"/>
<path d="M13288 11583 c7 -3 16 -2 19 1 4 3 -2 6 -13 5 -11 0 -14 -3 -6 -6z"/>
<path d="M4952 11570 c3 -8 15 -46 28 -83 12 -38 24 -66 26 -64 5 5 -43 148
-53 156 -3 3 -4 -1 -1 -9z"/>
<path d="M5020 11375 c0 -5 5 -17 10 -25 5 -8 10 -10 10 -5 0 6 -5 17 -10 25
-5 8 -10 11 -10 5z"/>
<path d="M13750 11370 c-12 -7 -10 -9 8 -7 12 0 22 5 22 9 0 11 -12 10 -30 -2z"/>
<path d="M13800 11370 c0 -5 5 -10 10 -10 6 0 10 5 10 10 0 6 -4 10 -10 10 -5
0 -10 -4 -10 -10z"/>
<path d="M14730 11170 c0 -11 5 -20 10 -20 6 0 10 9 10 20 0 11 -4 20 -10 20
-5 0 -10 -9 -10 -20z"/>
<path d="M15280 11009 c0 -17 4 -28 10 -24 6 3 10 17 10 31 0 13 -4 24 -10 24
-5 0 -10 -14 -10 -31z"/>
<path d="M15700 10840 c0 -5 5 -10 10 -10 6 0 10 5 10 10 0 6 -4 10 -10 10 -5
0 -10 -4 -10 -10z"/>
<path d="M15988 10824 c-4 -6 -3 -24 2 -40 5 -17 9 -22 9 -11 1 11 7 17 14 14
17 -6 49 12 42 24 -4 5 -12 9 -18 9 -7 0 -6 -4 3 -10 12 -8 9 -10 -12 -10 -17
0 -28 6 -30 18 -2 10 -6 13 -10 6z"/>
<path d="M16028 10763 c7 -3 16 -2 19 1 4 3 -2 6 -13 5 -11 0 -14 -3 -6 -6z"/>
<path d="M16235 10700 c-16 -7 -11 -9 22 -9 23 -1 45 4 48 9 8 12 -42 12 -70
0z"/>
<path d="M16860 10550 c-13 -8 -12 -10 3 -10 9 0 17 5 17 10 0 12 -1 12 -20 0z"/>
<path d="M16955 10550 c-3 -5 -1 -10 4 -10 6 0 11 5 11 10 0 6 -2 10 -4 10 -3
0 -8 -4 -11 -10z"/>
<path d="M17040 10470 c0 -5 7 -10 15 -10 8 0 15 5 15 10 0 6 -7 10 -15 10 -8
0 -15 -4 -15 -10z"/>
<path d="M17120 10469 c0 -4 -8 -10 -17 -12 -15 -4 -14 -5 3 -6 11 0 28 5 38
12 16 12 16 13 -3 13 -12 0 -21 -3 -21 -7z"/>
<path d="M17160 10410 c0 -5 9 -10 21 -10 11 0 17 5 14 10 -3 6 -13 10 -21 10
-8 0 -14 -4 -14 -10z"/>
<path d="M17240 10410 c0 -5 5 -10 11 -10 5 0 7 5 4 10 -3 6 -8 10 -11 10 -2
0 -4 -4 -4 -10z"/>
<path d="M17609 10213 c0 -5 -2 -16 -4 -25 -2 -10 1 -18 6 -18 5 0 9 11 9 25
0 22 -9 37 -11 18z"/>
<path d="M17628 10185 c-2 -22 0 -34 6 -32 14 4 21 67 8 67 -6 0 -12 -16 -14
-35z"/>
<path d="M17770 10200 c0 -11 5 -20 10 -20 6 0 10 9 10 20 0 11 -4 20 -10 20
-5 0 -10 -9 -10 -20z"/>
<path d="M17663 10175 c0 -22 2 -30 4 -17 2 12 2 30 0 40 -3 9 -5 -1 -4 -23z"/>
<path d="M18293 9623 c9 -2 23 -2 30 0 6 3 -1 5 -18 5 -16 0 -22 -2 -12 -5z"/>
<path d="M18160 9610 c-16 -6 -1 -7 40 -3 36 3 67 7 69 9 8 8 -84 2 -109 -6z"/>
<path d="M18053 9593 c15 -2 37 -2 50 0 12 2 0 4 -28 4 -27 0 -38 -2 -22 -4z"/>
<path d="M17968 9583 c12 -2 30 -2 40 0 9 3 -1 5 -23 4 -22 0 -30 -2 -17 -4z"/>
<path d="M17828 9573 c12 -2 32 -2 45 0 12 2 2 4 -23 4 -25 0 -35 -2 -22 -4z"/>
<path d="M17638 9563 c12 -2 30 -2 40 0 9 3 -1 5 -23 4 -22 0 -30 -2 -17 -4z"/>
<path d="M17438 9553 c18 -2 45 -2 60 0 15 2 0 4 -33 4 -33 0 -45 -2 -27 -4z"/>
<path d="M17173 9543 c9 -2 25 -2 35 0 9 3 1 5 -18 5 -19 0 -27 -2 -17 -5z"/>
<path d="M19540 8715 c-14 -8 -20 -14 -15 -14 6 0 21 6 35 14 14 8 21 14 15
14 -5 0 -21 -6 -35 -14z"/>
<path d="M19455 8679 c-22 -10 -29 -16 -15 -13 28 7 80 33 65 33 -5 0 -28 -9
-50 -20z"/>
<path d="M19380 8650 c-8 -5 -10 -10 -5 -10 6 0 17 5 25 10 8 5 11 10 5 10 -5
0 -17 -5 -25 -10z"/>
<path d="M20251 8594 c0 -11 3 -14 6 -6 3 7 2 16 -1 19 -3 4 -6 -2 -5 -13z"/>
<path d="M20320 8510 c0 -5 5 -10 10 -10 6 0 10 5 10 10 0 6 -4 10 -10 10 -5
0 -10 -4 -10 -10z"/>
<path d="M20385 8470 c-3 -5 -1 -10 4 -10 6 0 11 5 11 10 0 6 -2 10 -4 10 -3
0 -8 -4 -11 -10z"/>
<path d="M21580 7370 c0 -5 5 -10 10 -10 6 0 10 5 10 10 0 6 -4 10 -10 10 -5
0 -10 -4 -10 -10z"/>
<path d="M21762 7263 c-26 -5 -20 -23 9 -23 10 0 19 7 19 15 0 8 -1 14 -2 14
-2 -1 -13 -4 -26 -6z"/>
<path d="M21842 7150 c0 -14 2 -19 5 -12 2 6 2 18 0 25 -3 6 -5 1 -5 -13z"/>
<path d="M21970 7030 c0 -5 5 -10 11 -10 5 0 7 5 4 10 -3 6 -8 10 -11 10 -2 0
-4 -4 -4 -10z"/>
<path d="M21565 6654 l-40 -36 43 32 c36 27 49 40 40 40 -2 0 -21 -16 -43 -36z"/>
<path d="M21494 6598 l-19 -23 23 19 c21 18 27 26 19 26 -2 0 -12 -10 -23 -22z"/>
<path d="M21449 6563 c-13 -16 -12 -17 4 -4 9 7 17 15 17 17 0 8 -8 3 -21 -13z"/>
<path d="M21409 6533 c-13 -16 -12 -17 4 -4 16 13 21 21 13 21 -2 0 -10 -8
-17 -17z"/>
<path d="M21369 6503 c-13 -16 -12 -17 4 -4 16 13 21 21 13 21 -2 0 -10 -8
-17 -17z"/>
</g>
</svg>
